<svg xmlns="http://www.w3.org/2000/svg" viewBox="0 0 800 480">
  <rect width="800" height="480" rx="28" fill="#e8edf4"/>
  <rect x="56" y="46" width="688" height="388" rx="24" fill="#fbfcfe" stroke="#cfd7e3"/>
  <rect x="84" y="74" width="632" height="54" rx="15" fill="#f0f3f8"/>
  <circle cx="112" cy="101" r="10" fill="#6f8ad7"/>
  <rect x="136" y="93" width="188" height="15" rx="7" fill="#9aa7ba"/>
  <g fill="#f5f7fa" stroke="#d9e0e9">
    <rect x="84" y="150" width="632" height="68" rx="14"/>
    <rect x="84" y="232" width="632" height="68" rx="14"/>
    <rect x="84" y="314" width="632" height="68" rx="14"/>
  </g>
  <g fill="#5e77bf">
    <rect x="104" y="169" width="30" height="30" rx="9"/>
    <rect x="104" y="251" width="30" height="30" rx="9" opacity=".75"/>
    <rect x="104" y="333" width="30" height="30" rx="9" opacity=".55"/>
  </g>
  <g fill="#586579">
    <rect x="154" y="166" width="190" height="13" rx="6"/>
    <rect x="154" y="248" width="230" height="13" rx="6"/>
    <rect x="154" y="330" width="150" height="13" rx="6"/>
  </g>
  <g fill="#aab4c2">
    <rect x="154" y="189" width="350" height="10" rx="5"/>
    <rect x="154" y="271" width="286" height="10" rx="5"/>
    <rect x="154" y="353" width="320" height="10" rx="5"/>
  </g>
</svg>
